<svg width="297" height="307" viewBox="0 0 297 307" fill="none" xmlns="http://www.w3.org/2000/svg">
<path fill-rule="evenodd" clip-rule="evenodd" d="M149.236 132.361C154.771 141.035 160.902 148.521 167.731 155.126C174.61 161.716 179.796 164.414 183.315 163.381C185.527 162.731 186.889 159.798 187.328 154.772C187.817 149.732 186.401 142.719 183.284 134.01C182.027 131.171 181.839 129.707 182.543 129.5C182.794 129.426 183.582 130.377 185.088 132.805C190.915 146.458 194.207 158.155 194.988 167.718C195.719 177.297 193.798 182.926 189.126 184.637C183.718 185.719 176.514 182.601 167.563 175.268C158.485 167.804 149.41 157.469 140.336 144.262L127.786 159.6C146.038 180.241 162.315 196.565 176.796 208.689C191.227 220.828 202.654 225.914 211.154 224.092C214.671 222.722 217.088 219.479 218.358 214.378C219.678 209.262 219.572 202.202 218.14 193.167C215.149 174.966 206.834 152.588 193.4 126.311C188.518 117.445 182.978 108.098 176.701 98.1219L149.236 132.361ZM143.208 121.975L169.893 87.796C154.959 66.1804 142.265 56.9083 131.909 59.9502C129.132 62.2859 127.55 66.1275 127.394 71.9141C127.111 77.5691 128.276 84.6563 130.965 93.3219C133.653 101.988 137.683 111.441 143.208 121.975ZM106.661 167.325C103.123 162.792 98.4477 157.749 92.8384 152.474C87.2794 147.185 81.3447 142.174 75.2117 137.56C68.9516 132.813 63.2551 129.253 58.1223 126.877C53.0397 124.486 49.0287 123.807 46.1132 124.664C44.8565 125.033 43.7533 125.695 43.0311 126.751C41.5284 127.868 40.965 129.891 41.4679 132.951C42.021 135.997 43.36 139.656 45.6621 144.045C50.2662 152.823 56.2698 160.177 63.6729 166.107C69.7293 170.576 75.9284 173.989 81.9396 175.938C88.0778 178.018 93.3984 178.65 97.9252 177.658C102.518 175.465 105.362 171.928 106.661 167.325ZM114.411 175.686C109.72 184.662 103.344 190.756 95.2832 193.968C89.7776 195.417 83.8564 195.299 77.5198 193.614C71.26 192.076 64.9629 189.029 58.5283 184.503C52.1703 180.124 46.2065 174.615 40.7135 168.124C35.8054 162.306 32.572 158.021 31.2675 155.534C30.2699 153.632 29.6772 151.949 29.3622 150.353C29.0473 148.757 28.8037 146.633 28.5813 143.997C27.945 124.091 33.5955 112.3 45.5592 108.786C51.2394 107.117 57.9199 107.688 65.7514 110.453C73.4559 113.086 81.9834 117.841 91.2333 124.748C100.61 131.787 110.101 140.481 119.833 150.961L133.422 133.292C129.795 126.929 127.292 122.598 125.987 120.111C120.155 108.992 115.741 98.8069 112.516 89.1171C109.29 79.4273 107.308 70.8918 106.696 63.6422C106.034 56.4074 106.542 50.5175 108.219 45.9725C109.973 41.5738 112.645 38.5938 116.465 37.4716C122.397 35.7291 130.204 38.6699 139.838 46.3085C149.471 53.9471 160.177 66.5051 172.081 84.1141C173.93 82.2201 176.425 79.1234 179.388 74.7072C182.478 70.4226 184.996 67.15 186.943 64.8896C188.89 62.6291 191.197 61.276 193.761 60.523C197.732 59.3564 202.709 61.1026 208.742 65.7467C214.851 70.5371 221.254 77.4362 228.028 86.5903C234.724 95.5981 241.104 105.881 247.089 117.293C255.53 133.387 261.339 147.89 264.565 160.788C267.74 173.7 266.944 181.363 261.923 183.514C259.33 183.769 256.274 182.809 252.628 180.503C248.982 178.197 245.202 174.749 241.209 170.012C237.243 165.437 233.393 159.645 229.635 152.813C226.643 147.107 224.356 141.531 222.726 136.1C221.223 130.801 220.532 126.276 220.781 122.657C221.106 119.185 222.323 116.97 224.535 116.32C227.5 115.449 231.548 117.637 236.679 122.884C241.809 128.131 246.778 135.282 251.459 144.207L253.224 147.572C253.248 140.98 249.895 131.159 243.065 118.137C239.612 111.554 235.58 104.971 231.145 98.5069C226.583 91.9111 222.334 86.5744 218.193 82.2188C214.052 77.8632 210.655 75.1466 208.155 74.3614C204.789 72.4796 201.31 72.1509 197.741 73.1993C195.328 73.9081 193.299 75.3484 191.577 77.374C189.905 79.3847 187.812 82.3633 185.349 86.2949C182.937 90.2117 180.995 93.146 179.548 94.9219C184.906 103.479 190.066 112.432 195.054 121.941C203.418 137.889 210.216 153.283 215.397 168.139C220.578 182.995 223.984 196.347 225.641 208.355C227.222 220.217 227.071 229.885 225.09 237.39C223.083 244.733 219.366 249.371 213.913 251.142C208.479 252.063 202.095 250.73 194.708 246.821C187.27 242.928 179.317 237.497 170.821 230.368C162.325 223.24 154.028 215.715 145.979 207.78C137.903 199.684 127.415 189.088 114.411 175.686Z" fill="#fff" stroke="#fff" stroke-width="0.602291"/>
</svg>
